<svg width="20" height="20" viewBox="0 0 20 20" fill="none" xmlns="http://www.w3.org/2000/svg">
<path d="M20 0V7.5H17.5V4.28125L12.5312 9.21875C12.9271 9.80208 13.2292 10.4221 13.4375 11.0787C13.6458 11.7354 13.75 12.4175 13.75 13.125C13.75 15.0417 13.0833 16.6667 11.75 18C10.4167 19.3333 8.79167 20 6.875 20C4.95833 20 3.33333 19.3333 2 18C0.666667 16.6667 0 15.0417 0 13.125C0 11.2083 0.666667 9.58333 2 8.25C3.33333 6.91667 4.95833 6.25 6.875 6.25C7.5625 6.25 8.23958 6.34875 8.90625 6.54625C9.57292 6.74375 10.1875 7.05125 10.75 7.46875L15.7188 2.5H12.5V0H20ZM6.875 8.75C5.66667 8.75 4.63542 9.17708 3.78125 10.0312C2.92708 10.8854 2.5 11.9167 2.5 13.125C2.5 14.3333 2.92708 15.3646 3.78125 16.2188C4.63542 17.0729 5.66667 17.5 6.875 17.5C8.08333 17.5 9.11458 17.0729 9.96875 16.2188C10.8229 15.3646 11.25 14.3333 11.25 13.125C11.25 11.9167 10.8229 10.8854 9.96875 10.0312C9.11458 9.17708 8.08333 8.75 6.875 8.75Z" fill="currentColor"/>
</svg>
